<?xml version="1.0" encoding="UTF-8"?>
<svg xmlns="http://www.w3.org/2000/svg" xmlns:xlink="http://www.w3.org/1999/xlink" style="display: none;">
  <!-- University Icons -->
  <symbol id="uni-birzeit" viewBox="0 0 24 24">
    <path d="M12 2L2 7v9c0 3.3 3.6 6 10 6 6.4 0 10-2.7 10-6V7L12 2zm0 2.6L20 9v7c0 2-2.4 3.8-8 3.8-5.6 0-8-1.8-8-3.8V9l8-4.4z"/>
    <path d="M12 6L6 9v5c0 2 2.7 4 6 4s6-2 6-4V9l-6-3zm0 1.8l4 2v3.7c0 1.2-1.8 2.5-4 2.5s-4-1.3-4-2.5V9.8l4-2z"/>
  </symbol>
  
  <symbol id="uni-an-najah" viewBox="0 0 24 24">
    <path d="M4 3v12h3V9h5v6h3V9h5v6h3V3H4zm3 12v6h3v-6H7zm7 0v6h3v-6h-3z"/>
  </symbol>
  
  <symbol id="uni-alquds" viewBox="0 0 24 24">
    <path d="M12 2L4 6v6c0 4.1 3.4 7.6 8 8 4.6-.4 8-3.9 8-8V6l-8-4zm0 2l6 3v5c0 3.1-2.5 5.7-6 6-3.5-.3-6-2.9-6-6V7l6-3z"/>
    <path d="M12 8a2 2 0 100 4 2 2 0 000-4z"/>
    <path d="M10 14v2h4v-2h-4z"/>
  </symbol>
  
  <symbol id="uni-bethlehem" viewBox="0 0 24 24">
    <path d="M12 2L2 6l10 4 10-4-10-4zm-8 6v8l8 3 8-3V8l-8 3-8-3z"/>
  </symbol>
  
  <symbol id="uni-ppu" viewBox="0 0 24 24">
    <path d="M5 3v18h14V3H5zm2 2h10v14H7V5z"/>
    <path d="M9 8v8h6V8H9zm2 2h2v4h-2v-4z"/>
  </symbol>
  
  <symbol id="uni-aaup" viewBox="0 0 24 24">
    <path d="M4 3v18h16V3H4zm2 2h12v14H6V5z"/>
    <path d="M8 8l2 8h4l2-8h-2l-2 6-2-6H8z"/>
  </symbol>
  
  <!-- UI Icons -->
  <symbol id="arrow-right" viewBox="0 0 24 24">
    <path d="M12 4l-1.41 1.41L16.17 11H4v2h12.17l-5.58 5.59L12 20l8-8-8-8z"/>
  </symbol>
  
  <symbol id="arrow-left" viewBox="0 0 24 24">
    <path d="M20 11H7.83l5.59-5.59L12 4l-8 8 8 8 1.41-1.41L7.83 13H20v-2z"/>
  </symbol>
  
  <symbol id="check" viewBox="0 0 24 24">
    <path d="M9 16.17L4.83 12l-1.42 1.41L9 19 21 7l-1.41-1.41L9 16.17z"/>
  </symbol>
  
  <symbol id="star" viewBox="0 0 24 24">
    <path d="M12 17.27L18.18 21l-1.64-7.03L22 9.24l-7.19-.61L12 2 9.19 8.63 2 9.24l5.46 4.73L5.82 21 12 17.27z"/>
  </symbol>
</svg> 