<?xml version="1.0" encoding="UTF-8"?>
<svg xmlns="http://www.w3.org/2000/svg" style="display: none;">

  <!-- University Logos matching the image -->
  <symbol id="uni-arab-american" viewBox="0 0 24 24">
    <circle cx="12" cy="12" r="11" fill="currentColor"/>
    <circle cx="12" cy="12" r="8" fill="none" stroke="#fff" stroke-width="1.5"/>
    <path d="M8 10L12 7L16 10V15L12 18L8 15V10Z" fill="none" stroke="#fff" stroke-width="1.2"/>
  </symbol>

  <symbol id="uni-birzeit" viewBox="0 0 24 24">
    <circle cx="12" cy="12" r="10" fill="currentColor"/> 
    <path d="M8 8H16V16H8V8Z" fill="none" stroke="#fff" stroke-width="1.5"/>
    <circle cx="12" cy="12" r="2" fill="#fff"/>
  </symbol>

  <symbol id="uni-alchajah" viewBox="0 0 24 24">
    <circle cx="12" cy="12" r="11" fill="currentColor"/>
    <path d="M7 12C7 9.24 9.24 7 12 7C14.76 7 17 9.24 17 12C17 14.76 14.76 17 12 17" fill="none" stroke="#fff" stroke-width="1.5"/>
    <path d="M12 13L15 16M12 13L12 7" fill="none" stroke="#fff" stroke-width="1.5"/>
  </symbol>

  <symbol id="uni-poblectinic" viewBox="0 0 24 24">
    <rect x="3" y="3" width="18" height="18" fill="currentColor"/>
    <path d="M7 7H17V11H7V7Z" fill="none" stroke="#fff" stroke-width="1"/>
    <path d="M7 13H17V17H7V13Z" fill="none" stroke="#fff" stroke-width="1"/>
    <path d="M10 7V17" stroke="#fff" stroke-width="1"/>
    <path d="M14 7V17" stroke="#fff" stroke-width="1"/>
  </symbol>

  <symbol id="uni-kadoorie" viewBox="0 0 24 24">
    <circle cx="12" cy="12" r="11" fill="currentColor"/>
    <path d="M7 8H17M7 12H17M7 16H17" stroke="#fff" stroke-width="1.5"/>
    <path d="M12 7V17" stroke="#fff" stroke-width="1.5"/>
  </symbol>

  <symbol id="uni-betnipham" viewBox="0 0 24 24">
    <path d="M12 2L22 12L12 22L2 12L12 2Z" fill="currentColor"/>
    <circle cx="12" cy="12" r="5" fill="none" stroke="#fff" stroke-width="1.5"/>
    <path d="M12 7V12L15 15" stroke="#fff" stroke-width="1.5" fill="none"/>
  </symbol>

  <!-- Chat interface icons -->
  <symbol id="arrow-right" viewBox="0 0 24 24" fill="currentColor">
    <path d="M14 5l7 7-7 7M21 12H3" stroke="currentColor" stroke-width="2" stroke-linecap="round" stroke-linejoin="round" fill="none"/>
  </symbol>

  <symbol id="close" viewBox="0 0 20 20" fill="currentColor">
    <path fill-rule="evenodd" d="M4.293 4.293a1 1 0 011.414 0L10 8.586l4.293-4.293a1 1 0 111.414 1.414L11.414 10l4.293 4.293a1 1 0 01-1.414 1.414L10 11.414l-4.293 4.293a1 1 0 01-1.414-1.414L8.586 10 4.293 5.707a1 1 0 010-1.414z" clip-rule="evenodd" />
  </symbol>
  
  <!-- Add more symbols as needed -->

</svg> 